<svg id="visual" viewBox="0 0 900 600" width="900" height="600" xmlns="http://www.w3.org/2000/svg" xmlns:xlink="http://www.w3.org/1999/xlink" version="1.1"><rect x="0" y="0" width="900" height="600" fill="#002233"></rect><path d="M0 423L21.5 420C43 417 86 411 128.8 405C171.7 399 214.3 393 257.2 391.2C300 389.3 343 391.7 385.8 413.5C428.7 435.3 471.3 476.7 514.2 477.5C557 478.3 600 438.7 642.8 419.3C685.7 400 728.3 401 771.2 409.7C814 418.3 857 434.7 878.5 442.8L900 451L900 601L878.5 601C857 601 814 601 771.2 601C728.3 601 685.7 601 642.8 601C600 601 557 601 514.2 601C471.3 601 428.7 601 385.8 601C343 601 300 601 257.2 601C214.3 601 171.7 601 128.8 601C86 601 43 601 21.5 601L0 601Z" fill="#0066FF" stroke-linecap="round" stroke-linejoin="miter"></path></svg>