<?xml version="1.0" standalone="no"?>
<svg xmlns:xlink="http://www.w3.org/1999/xlink" id="wave" style="transform:rotate(180deg); transition: 0.3s" viewBox="0 0 1440 490" version="1.1" xmlns="http://www.w3.org/2000/svg"><defs><linearGradient id="sw-gradient-0" x1="0" x2="0" y1="1" y2="0"><stop stop-color="rgba(243, 106, 62, 1)" offset="0%"/><stop stop-color="rgba(255, 179, 11, 1)" offset="100%"/></linearGradient></defs><path style="transform:translate(0, 0px); opacity:1" fill="url(#sw-gradient-0)" d="M0,196L10,171.5C20,147,40,98,60,98C80,98,100,147,120,147C140,147,160,98,180,114.3C200,131,220,212,240,220.5C260,229,280,163,300,130.7C320,98,340,98,360,114.3C380,131,400,163,420,171.5C440,180,460,163,480,204.2C500,245,520,343,540,334.8C560,327,580,212,600,138.8C620,65,640,33,660,73.5C680,114,700,229,720,245C740,261,760,180,780,187.8C800,196,820,294,840,318.5C860,343,880,294,900,269.5C920,245,940,245,960,220.5C980,196,1000,147,1020,130.7C1040,114,1060,131,1080,155.2C1100,180,1120,212,1140,261.3C1160,310,1180,376,1200,367.5C1220,359,1240,278,1260,228.7C1280,180,1300,163,1320,130.7C1340,98,1360,49,1380,49C1400,49,1420,98,1430,122.5L1440,147L1440,490L1430,490C1420,490,1400,490,1380,490C1360,490,1340,490,1320,490C1300,490,1280,490,1260,490C1240,490,1220,490,1200,490C1180,490,1160,490,1140,490C1120,490,1100,490,1080,490C1060,490,1040,490,1020,490C1000,490,980,490,960,490C940,490,920,490,900,490C880,490,860,490,840,490C820,490,800,490,780,490C760,490,740,490,720,490C700,490,680,490,660,490C640,490,620,490,600,490C580,490,560,490,540,490C520,490,500,490,480,490C460,490,440,490,420,490C400,490,380,490,360,490C340,490,320,490,300,490C280,490,260,490,240,490C220,490,200,490,180,490C160,490,140,490,120,490C100,490,80,490,60,490C40,490,20,490,10,490L0,490Z"/><defs><linearGradient id="sw-gradient-1" x1="0" x2="0" y1="1" y2="0"><stop stop-color="rgba(182.088, 243, 62, 1)" offset="0%"/><stop stop-color="rgba(11, 255, 212.84, 1)" offset="100%"/></linearGradient></defs><path style="transform:translate(0, 50px); opacity:0.9" fill="url(#sw-gradient-1)" d="M0,245L10,277.7C20,310,40,376,60,359.3C80,343,100,245,120,220.5C140,196,160,245,180,269.5C200,294,220,294,240,261.3C260,229,280,163,300,114.3C320,65,340,33,360,40.8C380,49,400,98,420,163.3C440,229,460,310,480,334.8C500,359,520,327,540,302.2C560,278,580,261,600,253.2C620,245,640,245,660,204.2C680,163,700,82,720,81.7C740,82,760,163,780,228.7C800,294,820,343,840,326.7C860,310,880,229,900,236.8C920,245,940,343,960,326.7C980,310,1000,180,1020,147C1040,114,1060,180,1080,228.7C1100,278,1120,310,1140,269.5C1160,229,1180,114,1200,98C1220,82,1240,163,1260,220.5C1280,278,1300,310,1320,285.8C1340,261,1360,180,1380,138.8C1400,98,1420,98,1430,98L1440,98L1440,490L1430,490C1420,490,1400,490,1380,490C1360,490,1340,490,1320,490C1300,490,1280,490,1260,490C1240,490,1220,490,1200,490C1180,490,1160,490,1140,490C1120,490,1100,490,1080,490C1060,490,1040,490,1020,490C1000,490,980,490,960,490C940,490,920,490,900,490C880,490,860,490,840,490C820,490,800,490,780,490C760,490,740,490,720,490C700,490,680,490,660,490C640,490,620,490,600,490C580,490,560,490,540,490C520,490,500,490,480,490C460,490,440,490,420,490C400,490,380,490,360,490C340,490,320,490,300,490C280,490,260,490,240,490C220,490,200,490,180,490C160,490,140,490,120,490C100,490,80,490,60,490C40,490,20,490,10,490L0,490Z"/></svg>